# xmcd
#
# Track frame offsets:
#	150
#	16664
#	35020
#	53363
#	64157
#	80377
#	94974
#	112550
#	133414
#	149305
#	169100
#	185934
#
# Disc length: 2717 seconds
#
# Revision: 1
# Processed by: cddbd v1.4PL0 Copyright (c) Steve Scherf et al.
# Submitted via: audiograbber 1.80
#
DISCID=9e0a9b0c
DTITLE=K. Orbakaite - Ver V Chudesa
DYEAR=1900
DGENRE=
TTITLE0=Da-Di-Dam
TTITLE1=Rio De Janeiro
TTITLE2=Skazka Dlya Dvoih
TTITLE3=Moi Mir
TTITLE4=All My Love
TTITLE5=Robot
TTITLE6=Ubirasya Von
TTITLE7=Davai Ne Portit Vecher
TTITLE8=Aist
TTITLE9=Kak Jal
TTITLE10=Ot Zari Do Zari
TTITLE11=Jivu V Moskve
EXTD=
EXTT0=
EXTT1=
EXTT2=
EXTT3=
EXTT4=
EXTT5=
EXTT6=
EXTT7=
EXTT8=
EXTT9=
EXTT10=
EXTT11=
PLAYORDER=
